<mxfile host="Electron" modified="2024-03-06T14:39:19.496Z" agent="Mozilla/5.0 (Windows NT 10.0; Win64; x64) AppleWebKit/537.36 (KHTML, like Gecko) draw.io/23.1.5 Chrome/120.0.6099.109 Electron/28.1.0 Safari/537.36" etag="7VWVRq-Gh2JCZQvHsa1c" version="23.1.5" type="device">
  <diagram id="R2lEEEUBdFMjLlhIrx00" name="Page-1">
    <mxGraphModel dx="1434" dy="836" grid="1" gridSize="10" guides="1" tooltips="1" connect="1" arrows="1" fold="1" page="1" pageScale="1" pageWidth="850" pageHeight="1100" math="0" shadow="0" extFonts="Permanent Marker^https://fonts.googleapis.com/css?family=Permanent+Marker">
      <root>
        <mxCell id="0" />
        <mxCell id="1" parent="0" />
        <mxCell id="laZyPVEMxIUWzUnC1NXt-1" value="&lt;font style=&quot;font-size: 14px;&quot;&gt;&lt;b&gt;AppUser : IdentityUser&lt;/b&gt;&lt;/font&gt;" style="swimlane;fontStyle=0;childLayout=stackLayout;horizontal=1;startSize=30;horizontalStack=0;resizeParent=1;resizeParentMax=0;resizeLast=0;collapsible=1;marginBottom=0;whiteSpace=wrap;html=1;direction=east;fillColor=#647687;strokeColor=#314354;fontColor=#ffffff;strokeWidth=5;fontFamily=Courier New;" parent="1" vertex="1">
          <mxGeometry x="39.900000000000006" y="140" width="230" height="310" as="geometry">
            <mxRectangle x="150" y="180" width="90" height="30" as="alternateBounds" />
          </mxGeometry>
        </mxCell>
        <mxCell id="laZyPVEMxIUWzUnC1NXt-2" value="string? FirstName" style="text;strokeColor=none;fillColor=none;align=left;verticalAlign=middle;spacingLeft=4;spacingRight=4;overflow=hidden;points=[[0,0.5],[1,0.5]];portConstraint=eastwest;rotatable=0;whiteSpace=wrap;html=1;fontFamily=Courier New;" parent="laZyPVEMxIUWzUnC1NXt-1" vertex="1">
          <mxGeometry y="30" width="230" height="30" as="geometry" />
        </mxCell>
        <mxCell id="laZyPVEMxIUWzUnC1NXt-3" value="string? LastName" style="text;strokeColor=none;fillColor=none;align=left;verticalAlign=middle;spacingLeft=4;spacingRight=4;overflow=hidden;points=[[0,0.5],[1,0.5]];portConstraint=eastwest;rotatable=0;whiteSpace=wrap;html=1;fontFamily=Courier New;" parent="laZyPVEMxIUWzUnC1NXt-1" vertex="1">
          <mxGeometry y="60" width="230" height="30" as="geometry" />
        </mxCell>
        <mxCell id="FutvYbWhfo6PRabiO2lq-1" value="DateTime AddedTime" style="text;strokeColor=none;fillColor=none;align=left;verticalAlign=middle;spacingLeft=4;spacingRight=4;overflow=hidden;points=[[0,0.5],[1,0.5]];portConstraint=eastwest;rotatable=0;whiteSpace=wrap;html=1;fontFamily=Courier New;" parent="laZyPVEMxIUWzUnC1NXt-1" vertex="1">
          <mxGeometry y="90" width="230" height="30" as="geometry" />
        </mxCell>
        <mxCell id="FutvYbWhfo6PRabiO2lq-2" value="DateTime? LastActivityTime" style="text;strokeColor=none;fillColor=none;align=left;verticalAlign=middle;spacingLeft=4;spacingRight=4;overflow=hidden;points=[[0,0.5],[1,0.5]];portConstraint=eastwest;rotatable=0;whiteSpace=wrap;html=1;fontFamily=Courier New;" parent="laZyPVEMxIUWzUnC1NXt-1" vertex="1">
          <mxGeometry y="120" width="230" height="30" as="geometry" />
        </mxCell>
        <mxCell id="FutvYbWhfo6PRabiO2lq-4" value="int ShippingCartId" style="text;strokeColor=none;fillColor=none;align=left;verticalAlign=middle;spacingLeft=4;spacingRight=4;overflow=hidden;points=[[0,0.5],[1,0.5]];portConstraint=eastwest;rotatable=0;whiteSpace=wrap;html=1;fontFamily=Courier New;" parent="laZyPVEMxIUWzUnC1NXt-1" vertex="1">
          <mxGeometry y="150" width="230" height="30" as="geometry" />
        </mxCell>
        <mxCell id="laZyPVEMxIUWzUnC1NXt-109" value="ShippingCart ShippingCart = new ShippingCart()" style="text;strokeColor=none;fillColor=none;align=left;verticalAlign=middle;spacingLeft=4;spacingRight=4;overflow=hidden;points=[[0,0.5],[1,0.5]];portConstraint=eastwest;rotatable=0;whiteSpace=wrap;html=1;fontFamily=Courier New;" parent="laZyPVEMxIUWzUnC1NXt-1" vertex="1">
          <mxGeometry y="180" width="230" height="50" as="geometry" />
        </mxCell>
        <mxCell id="laZyPVEMxIUWzUnC1NXt-64" value="virtual ICollection&amp;lt;Order&amp;gt;? Orders" style="text;strokeColor=none;fillColor=none;align=left;verticalAlign=middle;spacingLeft=4;spacingRight=4;overflow=hidden;points=[[0,0.5],[1,0.5]];portConstraint=eastwest;rotatable=0;whiteSpace=wrap;html=1;fontFamily=Courier New;" parent="laZyPVEMxIUWzUnC1NXt-1" vertex="1">
          <mxGeometry y="230" width="230" height="40" as="geometry" />
        </mxCell>
        <mxCell id="laZyPVEMxIUWzUnC1NXt-66" value="virtual ICollection&amp;lt;Review&amp;gt;? Reviews" style="text;strokeColor=none;fillColor=none;align=left;verticalAlign=middle;spacingLeft=4;spacingRight=4;overflow=hidden;points=[[0,0.5],[1,0.5]];portConstraint=eastwest;rotatable=0;whiteSpace=wrap;html=1;fontFamily=Courier New;" parent="laZyPVEMxIUWzUnC1NXt-1" vertex="1">
          <mxGeometry y="270" width="230" height="40" as="geometry" />
        </mxCell>
        <mxCell id="laZyPVEMxIUWzUnC1NXt-24" value="&lt;font style=&quot;font-size: 14px;&quot;&gt;&lt;b&gt;Product : SoftDeleteEntity&lt;/b&gt;&lt;/font&gt;" style="swimlane;fontStyle=0;childLayout=stackLayout;horizontal=1;startSize=30;horizontalStack=0;resizeParent=1;resizeParentMax=0;resizeLast=0;collapsible=1;marginBottom=0;whiteSpace=wrap;html=1;fillColor=#008a00;strokeColor=#005700;fontColor=#ffffff;strokeWidth=5;fontFamily=Courier New;" parent="1" vertex="1">
          <mxGeometry x="569.9000000000001" y="520" width="170" height="220" as="geometry">
            <mxRectangle x="580" y="500" width="90" height="30" as="alternateBounds" />
          </mxGeometry>
        </mxCell>
        <mxCell id="laZyPVEMxIUWzUnC1NXt-25" value="[Key]&amp;nbsp;int Id" style="text;strokeColor=none;fillColor=none;align=left;verticalAlign=middle;spacingLeft=4;spacingRight=4;overflow=hidden;points=[[0,0.5],[1,0.5]];portConstraint=eastwest;rotatable=0;whiteSpace=wrap;html=1;fontFamily=Courier New;" parent="laZyPVEMxIUWzUnC1NXt-24" vertex="1">
          <mxGeometry y="30" width="170" height="30" as="geometry" />
        </mxCell>
        <mxCell id="laZyPVEMxIUWzUnC1NXt-26" value="string Title" style="text;strokeColor=none;fillColor=none;align=left;verticalAlign=middle;spacingLeft=4;spacingRight=4;overflow=hidden;points=[[0,0.5],[1,0.5]];portConstraint=eastwest;rotatable=0;whiteSpace=wrap;html=1;fontFamily=Courier New;" parent="laZyPVEMxIUWzUnC1NXt-24" vertex="1">
          <mxGeometry y="60" width="170" height="30" as="geometry" />
        </mxCell>
        <mxCell id="laZyPVEMxIUWzUnC1NXt-27" value="string Description" style="text;strokeColor=none;fillColor=none;align=left;verticalAlign=middle;spacingLeft=4;spacingRight=4;overflow=hidden;points=[[0,0.5],[1,0.5]];portConstraint=eastwest;rotatable=0;whiteSpace=wrap;html=1;fontFamily=Courier New;" parent="laZyPVEMxIUWzUnC1NXt-24" vertex="1">
          <mxGeometry y="90" width="170" height="30" as="geometry" />
        </mxCell>
        <mxCell id="laZyPVEMxIUWzUnC1NXt-28" value="int? InStock" style="text;strokeColor=none;fillColor=none;align=left;verticalAlign=middle;spacingLeft=4;spacingRight=4;overflow=hidden;points=[[0,0.5],[1,0.5]];portConstraint=eastwest;rotatable=0;whiteSpace=wrap;html=1;fontFamily=Courier New;" parent="laZyPVEMxIUWzUnC1NXt-24" vertex="1">
          <mxGeometry y="120" width="170" height="30" as="geometry" />
        </mxCell>
        <mxCell id="laZyPVEMxIUWzUnC1NXt-115" value="int Price" style="text;strokeColor=none;fillColor=none;align=left;verticalAlign=middle;spacingLeft=4;spacingRight=4;overflow=hidden;points=[[0,0.5],[1,0.5]];portConstraint=eastwest;rotatable=0;whiteSpace=wrap;html=1;fontFamily=Courier New;" parent="laZyPVEMxIUWzUnC1NXt-24" vertex="1">
          <mxGeometry y="150" width="170" height="30" as="geometry" />
        </mxCell>
        <mxCell id="laZyPVEMxIUWzUnC1NXt-32" value="ICollection&amp;lt;Review&amp;gt; Reviews" style="text;strokeColor=none;fillColor=none;align=left;verticalAlign=middle;spacingLeft=4;spacingRight=4;overflow=hidden;points=[[0,0.5],[1,0.5]];portConstraint=eastwest;rotatable=0;whiteSpace=wrap;html=1;fontFamily=Courier New;" parent="laZyPVEMxIUWzUnC1NXt-24" vertex="1">
          <mxGeometry y="180" width="170" height="40" as="geometry" />
        </mxCell>
        <mxCell id="laZyPVEMxIUWzUnC1NXt-33" value="&lt;span style=&quot;font-size: 14px;&quot;&gt;&lt;b&gt;Review&lt;/b&gt;&lt;/span&gt;" style="swimlane;fontStyle=0;childLayout=stackLayout;horizontal=1;startSize=30;horizontalStack=0;resizeParent=1;resizeParentMax=0;resizeLast=0;collapsible=1;marginBottom=0;whiteSpace=wrap;html=1;fillColor=#e3c800;fontColor=#000000;strokeColor=#B09500;strokeWidth=5;fontFamily=Courier New;" parent="1" vertex="1">
          <mxGeometry x="269.9" y="500" width="210" height="240" as="geometry">
            <mxRectangle x="150" y="180" width="90" height="30" as="alternateBounds" />
          </mxGeometry>
        </mxCell>
        <mxCell id="laZyPVEMxIUWzUnC1NXt-36" value="[Key] int Id" style="text;strokeColor=none;fillColor=none;align=left;verticalAlign=middle;spacingLeft=4;spacingRight=4;overflow=hidden;points=[[0,0.5],[1,0.5]];portConstraint=eastwest;rotatable=0;whiteSpace=wrap;html=1;fontFamily=Courier New;" parent="laZyPVEMxIUWzUnC1NXt-33" vertex="1">
          <mxGeometry y="30" width="210" height="30" as="geometry" />
        </mxCell>
        <mxCell id="laZyPVEMxIUWzUnC1NXt-37" value="string AppUserId" style="text;strokeColor=none;fillColor=none;align=left;verticalAlign=middle;spacingLeft=4;spacingRight=4;overflow=hidden;points=[[0,0.5],[1,0.5]];portConstraint=eastwest;rotatable=0;whiteSpace=wrap;html=1;fontFamily=Courier New;" parent="laZyPVEMxIUWzUnC1NXt-33" vertex="1">
          <mxGeometry y="60" width="210" height="30" as="geometry" />
        </mxCell>
        <mxCell id="laZyPVEMxIUWzUnC1NXt-40" value="DateTime AddedTime" style="text;strokeColor=none;fillColor=none;align=left;verticalAlign=middle;spacingLeft=4;spacingRight=4;overflow=hidden;points=[[0,0.5],[1,0.5]];portConstraint=eastwest;rotatable=0;whiteSpace=wrap;html=1;fontFamily=Courier New;" parent="laZyPVEMxIUWzUnC1NXt-33" vertex="1">
          <mxGeometry y="90" width="210" height="30" as="geometry" />
        </mxCell>
        <mxCell id="laZyPVEMxIUWzUnC1NXt-38" value="DateTime EditedTime" style="text;strokeColor=none;fillColor=none;align=left;verticalAlign=middle;spacingLeft=4;spacingRight=4;overflow=hidden;points=[[0,0.5],[1,0.5]];portConstraint=eastwest;rotatable=0;whiteSpace=wrap;html=1;fontFamily=Courier New;" parent="laZyPVEMxIUWzUnC1NXt-33" vertex="1">
          <mxGeometry y="120" width="210" height="30" as="geometry" />
        </mxCell>
        <mxCell id="laZyPVEMxIUWzUnC1NXt-39" value="string ReviewText" style="text;strokeColor=none;fillColor=none;align=left;verticalAlign=middle;spacingLeft=4;spacingRight=4;overflow=hidden;points=[[0,0.5],[1,0.5]];portConstraint=eastwest;rotatable=0;whiteSpace=wrap;html=1;fontFamily=Courier New;" parent="laZyPVEMxIUWzUnC1NXt-33" vertex="1">
          <mxGeometry y="150" width="210" height="30" as="geometry" />
        </mxCell>
        <mxCell id="laZyPVEMxIUWzUnC1NXt-34" value="[Range(1, 5, ErrorMessage=&quot;Error - Out of range&quot;]&amp;nbsp;int ReviewScore" style="text;strokeColor=none;fillColor=none;align=left;verticalAlign=middle;spacingLeft=4;spacingRight=4;overflow=hidden;points=[[0,0.5],[1,0.5]];portConstraint=eastwest;rotatable=0;whiteSpace=wrap;html=1;fontFamily=Courier New;" parent="laZyPVEMxIUWzUnC1NXt-33" vertex="1">
          <mxGeometry y="180" width="210" height="60" as="geometry" />
        </mxCell>
        <mxCell id="laZyPVEMxIUWzUnC1NXt-41" value="&lt;font style=&quot;font-size: 14px;&quot;&gt;&lt;b&gt;Order&lt;/b&gt;&lt;/font&gt;" style="swimlane;fontStyle=0;childLayout=stackLayout;horizontal=1;startSize=30;horizontalStack=0;resizeParent=1;resizeParentMax=0;resizeLast=0;collapsible=1;marginBottom=0;whiteSpace=wrap;html=1;fillColor=#76608a;fontColor=#ffffff;strokeColor=#432D57;strokeWidth=5;fontFamily=Courier New;" parent="1" vertex="1">
          <mxGeometry x="339.9" y="250" width="140" height="200" as="geometry">
            <mxRectangle x="370" y="490" width="90" height="30" as="alternateBounds" />
          </mxGeometry>
        </mxCell>
        <mxCell id="laZyPVEMxIUWzUnC1NXt-42" value="[Key]&amp;nbsp;int Id" style="text;strokeColor=none;fillColor=none;align=left;verticalAlign=middle;spacingLeft=4;spacingRight=4;overflow=hidden;points=[[0,0.5],[1,0.5]];portConstraint=eastwest;rotatable=0;whiteSpace=wrap;html=1;fontFamily=Courier New;" parent="laZyPVEMxIUWzUnC1NXt-41" vertex="1">
          <mxGeometry y="30" width="140" height="30" as="geometry" />
        </mxCell>
        <mxCell id="laZyPVEMxIUWzUnC1NXt-51" value="string AppUser" style="text;strokeColor=none;fillColor=none;align=left;verticalAlign=middle;spacingLeft=4;spacingRight=4;overflow=hidden;points=[[0,0.5],[1,0.5]];portConstraint=eastwest;rotatable=0;whiteSpace=wrap;html=1;fontFamily=Courier New;" parent="laZyPVEMxIUWzUnC1NXt-41" vertex="1">
          <mxGeometry y="60" width="140" height="30" as="geometry" />
        </mxCell>
        <mxCell id="laZyPVEMxIUWzUnC1NXt-113" value="AppUser AppUser" style="text;strokeColor=none;fillColor=none;align=left;verticalAlign=middle;spacingLeft=4;spacingRight=4;overflow=hidden;points=[[0,0.5],[1,0.5]];portConstraint=eastwest;rotatable=0;whiteSpace=wrap;html=1;fontFamily=Courier New;" parent="laZyPVEMxIUWzUnC1NXt-41" vertex="1">
          <mxGeometry y="90" width="140" height="30" as="geometry" />
        </mxCell>
        <mxCell id="laZyPVEMxIUWzUnC1NXt-50" value="DateTime PurchaisedTime" style="text;strokeColor=none;fillColor=none;align=left;verticalAlign=middle;spacingLeft=4;spacingRight=4;overflow=hidden;points=[[0,0.5],[1,0.5]];portConstraint=eastwest;rotatable=0;whiteSpace=wrap;html=1;fontFamily=Courier New;" parent="laZyPVEMxIUWzUnC1NXt-41" vertex="1">
          <mxGeometry y="120" width="140" height="40" as="geometry" />
        </mxCell>
        <mxCell id="laZyPVEMxIUWzUnC1NXt-78" value="ICollection&amp;lt;OrderItem&amp;gt; OrderItems" style="text;strokeColor=none;fillColor=none;align=left;verticalAlign=middle;spacingLeft=4;spacingRight=4;overflow=hidden;points=[[0,0.5],[1,0.5]];portConstraint=eastwest;rotatable=0;whiteSpace=wrap;html=1;fontFamily=Courier New;" parent="laZyPVEMxIUWzUnC1NXt-41" vertex="1">
          <mxGeometry y="160" width="140" height="40" as="geometry" />
        </mxCell>
        <mxCell id="laZyPVEMxIUWzUnC1NXt-46" value="&lt;font style=&quot;font-size: 14px;&quot;&gt;&lt;b&gt;ShippingCart&lt;/b&gt;&lt;/font&gt;" style="swimlane;fontStyle=0;childLayout=stackLayout;horizontal=1;startSize=30;horizontalStack=0;resizeParent=1;resizeParentMax=0;resizeLast=0;collapsible=1;marginBottom=0;whiteSpace=wrap;html=1;fillColor=#6d8764;fontColor=#ffffff;strokeColor=#3A5431;strokeWidth=5;fontFamily=Courier New;" parent="1" vertex="1">
          <mxGeometry x="339.9" y="40" width="180" height="170" as="geometry">
            <mxRectangle x="150" y="180" width="90" height="30" as="alternateBounds" />
          </mxGeometry>
        </mxCell>
        <mxCell id="laZyPVEMxIUWzUnC1NXt-79" value="[Key] int Id" style="text;strokeColor=none;fillColor=none;align=left;verticalAlign=middle;spacingLeft=4;spacingRight=4;overflow=hidden;points=[[0,0.5],[1,0.5]];portConstraint=eastwest;rotatable=0;whiteSpace=wrap;html=1;fontFamily=Courier New;" parent="laZyPVEMxIUWzUnC1NXt-46" vertex="1">
          <mxGeometry y="30" width="180" height="30" as="geometry" />
        </mxCell>
        <mxCell id="FutvYbWhfo6PRabiO2lq-7" value="int AppUserId" style="text;strokeColor=none;fillColor=none;align=left;verticalAlign=middle;spacingLeft=4;spacingRight=4;overflow=hidden;points=[[0,0.5],[1,0.5]];portConstraint=eastwest;rotatable=0;whiteSpace=wrap;html=1;fontFamily=Courier New;" parent="laZyPVEMxIUWzUnC1NXt-46" vertex="1">
          <mxGeometry y="60" width="180" height="30" as="geometry" />
        </mxCell>
        <mxCell id="laZyPVEMxIUWzUnC1NXt-106" value="AppUser AppUser" style="text;strokeColor=none;fillColor=none;align=left;verticalAlign=middle;spacingLeft=4;spacingRight=4;overflow=hidden;points=[[0,0.5],[1,0.5]];portConstraint=eastwest;rotatable=0;whiteSpace=wrap;html=1;fontFamily=Courier New;" parent="laZyPVEMxIUWzUnC1NXt-46" vertex="1">
          <mxGeometry y="90" width="180" height="30" as="geometry" />
        </mxCell>
        <mxCell id="laZyPVEMxIUWzUnC1NXt-55" value="ICollection &amp;lt;ShippingCartItem&amp;gt;? ShippingCartItem" style="text;strokeColor=none;fillColor=none;align=left;verticalAlign=middle;spacingLeft=4;spacingRight=4;overflow=hidden;points=[[0,0.5],[1,0.5]];portConstraint=eastwest;rotatable=0;whiteSpace=wrap;html=1;fontFamily=Courier New;" parent="laZyPVEMxIUWzUnC1NXt-46" vertex="1">
          <mxGeometry y="120" width="180" height="50" as="geometry" />
        </mxCell>
        <mxCell id="laZyPVEMxIUWzUnC1NXt-83" value="&lt;font style=&quot;font-size: 14px;&quot;&gt;&lt;b&gt;ShippingCartItem&lt;/b&gt;&lt;/font&gt;" style="swimlane;fontStyle=0;childLayout=stackLayout;horizontal=1;startSize=30;horizontalStack=0;resizeParent=1;resizeParentMax=0;resizeLast=0;collapsible=1;marginBottom=0;whiteSpace=wrap;html=1;fillColor=#6d8764;fontColor=#ffffff;strokeColor=#3A5431;strokeWidth=5;fontFamily=Courier New;" parent="1" vertex="1">
          <mxGeometry x="579.9000000000001" y="40" width="160" height="180" as="geometry">
            <mxRectangle x="150" y="180" width="90" height="30" as="alternateBounds" />
          </mxGeometry>
        </mxCell>
        <mxCell id="laZyPVEMxIUWzUnC1NXt-84" value="[Key] int Id" style="text;strokeColor=none;fillColor=none;align=left;verticalAlign=middle;spacingLeft=4;spacingRight=4;overflow=hidden;points=[[0,0.5],[1,0.5]];portConstraint=eastwest;rotatable=0;whiteSpace=wrap;html=1;fontFamily=Courier New;" parent="laZyPVEMxIUWzUnC1NXt-83" vertex="1">
          <mxGeometry y="30" width="160" height="30" as="geometry" />
        </mxCell>
        <mxCell id="laZyPVEMxIUWzUnC1NXt-88" value="int ShippingCartId" style="text;strokeColor=none;fillColor=none;align=left;verticalAlign=middle;spacingLeft=4;spacingRight=4;overflow=hidden;points=[[0,0.5],[1,0.5]];portConstraint=eastwest;rotatable=0;whiteSpace=wrap;html=1;fontFamily=Courier New;" parent="laZyPVEMxIUWzUnC1NXt-83" vertex="1">
          <mxGeometry y="60" width="160" height="30" as="geometry" />
        </mxCell>
        <mxCell id="laZyPVEMxIUWzUnC1NXt-86" value="int ProductId" style="text;strokeColor=none;fillColor=none;align=left;verticalAlign=middle;spacingLeft=4;spacingRight=4;overflow=hidden;points=[[0,0.5],[1,0.5]];portConstraint=eastwest;rotatable=0;whiteSpace=wrap;html=1;fontFamily=Courier New;" parent="laZyPVEMxIUWzUnC1NXt-83" vertex="1">
          <mxGeometry y="90" width="160" height="30" as="geometry" />
        </mxCell>
        <mxCell id="laZyPVEMxIUWzUnC1NXt-123" value="Product Product" style="text;strokeColor=none;fillColor=none;align=left;verticalAlign=middle;spacingLeft=4;spacingRight=4;overflow=hidden;points=[[0,0.5],[1,0.5]];portConstraint=eastwest;rotatable=0;whiteSpace=wrap;html=1;fontFamily=Courier New;" parent="laZyPVEMxIUWzUnC1NXt-83" vertex="1">
          <mxGeometry y="120" width="160" height="30" as="geometry" />
        </mxCell>
        <mxCell id="laZyPVEMxIUWzUnC1NXt-89" value="int Quantity" style="text;strokeColor=none;fillColor=none;align=left;verticalAlign=middle;spacingLeft=4;spacingRight=4;overflow=hidden;points=[[0,0.5],[1,0.5]];portConstraint=eastwest;rotatable=0;whiteSpace=wrap;html=1;fontFamily=Courier New;" parent="laZyPVEMxIUWzUnC1NXt-83" vertex="1">
          <mxGeometry y="150" width="160" height="30" as="geometry" />
        </mxCell>
        <mxCell id="laZyPVEMxIUWzUnC1NXt-87" style="edgeStyle=orthogonalEdgeStyle;rounded=0;orthogonalLoop=1;jettySize=auto;html=1;exitX=1;exitY=0.5;exitDx=0;exitDy=0;entryX=-0.001;entryY=0.086;entryDx=0;entryDy=0;entryPerimeter=0;fontFamily=Courier New;strokeWidth=3;fillColor=#6d8764;strokeColor=#3A5431;" parent="1" source="laZyPVEMxIUWzUnC1NXt-55" target="laZyPVEMxIUWzUnC1NXt-83" edge="1">
          <mxGeometry relative="1" as="geometry" />
        </mxCell>
        <mxCell id="laZyPVEMxIUWzUnC1NXt-90" value="&lt;font style=&quot;font-size: 14px;&quot;&gt;&lt;b&gt;OrderItem&lt;/b&gt;&lt;/font&gt;" style="swimlane;fontStyle=0;childLayout=stackLayout;horizontal=1;startSize=30;horizontalStack=0;resizeParent=1;resizeParentMax=0;resizeLast=0;collapsible=1;marginBottom=0;whiteSpace=wrap;html=1;fillColor=#76608a;fontColor=#ffffff;strokeColor=#432D57;strokeWidth=5;fontFamily=Courier New;" parent="1" vertex="1">
          <mxGeometry x="579.9000000000001" y="260" width="160" height="180" as="geometry">
            <mxRectangle x="370" y="760" width="90" height="30" as="alternateBounds" />
          </mxGeometry>
        </mxCell>
        <mxCell id="laZyPVEMxIUWzUnC1NXt-91" value="[Key]&amp;nbsp;int Id" style="text;strokeColor=none;fillColor=none;align=left;verticalAlign=middle;spacingLeft=4;spacingRight=4;overflow=hidden;points=[[0,0.5],[1,0.5]];portConstraint=eastwest;rotatable=0;whiteSpace=wrap;html=1;fontFamily=Courier New;" parent="laZyPVEMxIUWzUnC1NXt-90" vertex="1">
          <mxGeometry y="30" width="160" height="30" as="geometry" />
        </mxCell>
        <mxCell id="laZyPVEMxIUWzUnC1NXt-95" value="int OrderId" style="text;strokeColor=none;fillColor=none;align=left;verticalAlign=middle;spacingLeft=4;spacingRight=4;overflow=hidden;points=[[0,0.5],[1,0.5]];portConstraint=eastwest;rotatable=0;whiteSpace=wrap;html=1;fontFamily=Courier New;" parent="laZyPVEMxIUWzUnC1NXt-90" vertex="1">
          <mxGeometry y="60" width="160" height="30" as="geometry" />
        </mxCell>
        <mxCell id="laZyPVEMxIUWzUnC1NXt-94" value="int ProductId" style="text;strokeColor=none;fillColor=none;align=left;verticalAlign=middle;spacingLeft=4;spacingRight=4;overflow=hidden;points=[[0,0.5],[1,0.5]];portConstraint=eastwest;rotatable=0;whiteSpace=wrap;html=1;fontFamily=Courier New;" parent="laZyPVEMxIUWzUnC1NXt-90" vertex="1">
          <mxGeometry y="90" width="160" height="30" as="geometry" />
        </mxCell>
        <mxCell id="laZyPVEMxIUWzUnC1NXt-122" value="Product Product" style="text;strokeColor=none;fillColor=none;align=left;verticalAlign=middle;spacingLeft=4;spacingRight=4;overflow=hidden;points=[[0,0.5],[1,0.5]];portConstraint=eastwest;rotatable=0;whiteSpace=wrap;html=1;fontFamily=Courier New;" parent="laZyPVEMxIUWzUnC1NXt-90" vertex="1">
          <mxGeometry y="120" width="160" height="30" as="geometry" />
        </mxCell>
        <mxCell id="laZyPVEMxIUWzUnC1NXt-96" value="int Quantity" style="text;strokeColor=none;fillColor=none;align=left;verticalAlign=middle;spacingLeft=4;spacingRight=4;overflow=hidden;points=[[0,0.5],[1,0.5]];portConstraint=eastwest;rotatable=0;whiteSpace=wrap;html=1;fontFamily=Courier New;" parent="laZyPVEMxIUWzUnC1NXt-90" vertex="1">
          <mxGeometry y="150" width="160" height="30" as="geometry" />
        </mxCell>
        <mxCell id="FutvYbWhfo6PRabiO2lq-5" style="edgeStyle=orthogonalEdgeStyle;rounded=0;orthogonalLoop=1;jettySize=auto;html=1;exitX=1;exitY=0.5;exitDx=0;exitDy=0;entryX=0;entryY=0.113;entryDx=0;entryDy=0;entryPerimeter=0;fontFamily=Courier New;fillColor=#647687;strokeColor=#314354;strokeWidth=3;" parent="1" source="laZyPVEMxIUWzUnC1NXt-109" target="laZyPVEMxIUWzUnC1NXt-46" edge="1">
          <mxGeometry relative="1" as="geometry">
            <Array as="points">
              <mxPoint x="300" y="345" />
              <mxPoint x="300" y="59" />
              <mxPoint x="340" y="59" />
            </Array>
          </mxGeometry>
        </mxCell>
        <mxCell id="FutvYbWhfo6PRabiO2lq-8" style="edgeStyle=orthogonalEdgeStyle;rounded=0;orthogonalLoop=1;jettySize=auto;html=1;exitX=1;exitY=0.5;exitDx=0;exitDy=0;entryX=0;entryY=0.069;entryDx=0;entryDy=0;entryPerimeter=0;fontFamily=Courier New;strokeWidth=3;fillColor=#647687;strokeColor=#314354;" parent="1" source="laZyPVEMxIUWzUnC1NXt-64" target="laZyPVEMxIUWzUnC1NXt-41" edge="1">
          <mxGeometry relative="1" as="geometry">
            <Array as="points">
              <mxPoint x="320" y="390" />
              <mxPoint x="320" y="264" />
            </Array>
          </mxGeometry>
        </mxCell>
        <mxCell id="FutvYbWhfo6PRabiO2lq-10" style="edgeStyle=orthogonalEdgeStyle;rounded=0;orthogonalLoop=1;jettySize=auto;html=1;exitX=1;exitY=0.5;exitDx=0;exitDy=0;entryX=-0.004;entryY=0.06;entryDx=0;entryDy=0;entryPerimeter=0;fontFamily=Courier New;strokeWidth=3;fillColor=#76608a;strokeColor=#432D57;" parent="1" source="laZyPVEMxIUWzUnC1NXt-78" target="laZyPVEMxIUWzUnC1NXt-90" edge="1">
          <mxGeometry relative="1" as="geometry" />
        </mxCell>
        <mxCell id="FutvYbWhfo6PRabiO2lq-12" style="edgeStyle=orthogonalEdgeStyle;rounded=0;orthogonalLoop=1;jettySize=auto;html=1;exitX=1;exitY=0.5;exitDx=0;exitDy=0;entryX=0.5;entryY=0;entryDx=0;entryDy=0;fontFamily=Courier New;strokeWidth=3;fillColor=#6d8764;strokeColor=#3A5431;" parent="1" source="laZyPVEMxIUWzUnC1NXt-123" target="laZyPVEMxIUWzUnC1NXt-24" edge="1">
          <mxGeometry relative="1" as="geometry">
            <Array as="points">
              <mxPoint x="780" y="175" />
              <mxPoint x="780" y="490" />
              <mxPoint x="655" y="490" />
            </Array>
          </mxGeometry>
        </mxCell>
        <mxCell id="FutvYbWhfo6PRabiO2lq-13" style="edgeStyle=orthogonalEdgeStyle;rounded=0;orthogonalLoop=1;jettySize=auto;html=1;exitX=1;exitY=0.5;exitDx=0;exitDy=0;entryX=0.25;entryY=0;entryDx=0;entryDy=0;fontFamily=Courier New;strokeWidth=3;fillColor=#76608a;strokeColor=#432D57;" parent="1" source="laZyPVEMxIUWzUnC1NXt-122" target="laZyPVEMxIUWzUnC1NXt-24" edge="1">
          <mxGeometry relative="1" as="geometry" />
        </mxCell>
        <mxCell id="FutvYbWhfo6PRabiO2lq-15" style="edgeStyle=orthogonalEdgeStyle;rounded=0;orthogonalLoop=1;jettySize=auto;html=1;exitX=0;exitY=0.5;exitDx=0;exitDy=0;fontFamily=Courier New;strokeWidth=3;fillColor=#008a00;strokeColor=#005700;entryX=1.008;entryY=0.051;entryDx=0;entryDy=0;entryPerimeter=0;" parent="1" source="laZyPVEMxIUWzUnC1NXt-32" target="laZyPVEMxIUWzUnC1NXt-33" edge="1">
          <mxGeometry relative="1" as="geometry">
            <mxPoint x="481" y="496" as="targetPoint" />
            <Array as="points">
              <mxPoint x="570" y="715" />
              <mxPoint x="530" y="715" />
              <mxPoint x="530" y="512" />
            </Array>
          </mxGeometry>
        </mxCell>
        <mxCell id="UeMses32ds--2u54rG8w-1" value="&lt;font style=&quot;font-size: 14px;&quot;&gt;&lt;b&gt;SoftDeleteEntity&lt;/b&gt;&lt;/font&gt;" style="swimlane;fontStyle=0;childLayout=stackLayout;horizontal=1;startSize=30;horizontalStack=0;resizeParent=1;resizeParentMax=0;resizeLast=0;collapsible=1;marginBottom=0;whiteSpace=wrap;html=1;fillColor=#008a00;strokeColor=#005700;fontColor=#ffffff;strokeWidth=5;fontFamily=Courier New;" vertex="1" parent="1">
          <mxGeometry x="569.9000000000001" y="760" width="170" height="60" as="geometry">
            <mxRectangle x="580" y="500" width="90" height="30" as="alternateBounds" />
          </mxGeometry>
        </mxCell>
        <mxCell id="UeMses32ds--2u54rG8w-2" value="bool IsDeleted" style="text;strokeColor=none;fillColor=none;align=left;verticalAlign=middle;spacingLeft=4;spacingRight=4;overflow=hidden;points=[[0,0.5],[1,0.5]];portConstraint=eastwest;rotatable=0;whiteSpace=wrap;html=1;fontFamily=Courier New;" vertex="1" parent="UeMses32ds--2u54rG8w-1">
          <mxGeometry y="30" width="170" height="30" as="geometry" />
        </mxCell>
        <mxCell id="UeMses32ds--2u54rG8w-8" style="edgeStyle=orthogonalEdgeStyle;rounded=0;orthogonalLoop=1;jettySize=auto;html=1;exitX=1;exitY=0.25;exitDx=0;exitDy=0;entryX=1.006;entryY=0.055;entryDx=0;entryDy=0;entryPerimeter=0;" edge="1" parent="1" source="UeMses32ds--2u54rG8w-1" target="laZyPVEMxIUWzUnC1NXt-24">
          <mxGeometry relative="1" as="geometry" />
        </mxCell>
      </root>
    </mxGraphModel>
  </diagram>
</mxfile>
